<mxfile host="app.diagrams.net" modified="2023-01-26T15:35:52.424Z" agent="5.0 (Windows NT 10.0; Win64; x64) AppleWebKit/537.36 (KHTML, like Gecko) Chrome/109.0.0.0 Safari/537.36" etag="Ho49GA4GJMIACA3RwEWE" version="20.8.11" type="github">
  <diagram name="Page-1" id="c7488fd3-1785-93aa-aadb-54a6760d102a">
    <mxGraphModel dx="1434" dy="788" grid="1" gridSize="10" guides="1" tooltips="1" connect="1" arrows="1" fold="1" page="1" pageScale="1" pageWidth="1100" pageHeight="850" background="none" math="0" shadow="0">
      <root>
        <mxCell id="0" />
        <mxCell id="1" parent="0" />
        <mxCell id="anOY829Rz3EBCnS7Kj7Q-5" value="" style="edgeStyle=orthogonalEdgeStyle;rounded=0;orthogonalLoop=1;jettySize=auto;html=1;" edge="1" parent="1" target="anOY829Rz3EBCnS7Kj7Q-3">
          <mxGeometry relative="1" as="geometry">
            <mxPoint x="290" y="60" as="sourcePoint" />
          </mxGeometry>
        </mxCell>
        <mxCell id="anOY829Rz3EBCnS7Kj7Q-43" value="Login&lt;br&gt;Failure" style="edgeStyle=orthogonalEdgeStyle;rounded=0;orthogonalLoop=1;jettySize=auto;exitX=0;exitY=0.5;exitDx=0;exitDy=0;fontSize=13;html=1;" edge="1" parent="1" source="anOY829Rz3EBCnS7Kj7Q-6" target="anOY829Rz3EBCnS7Kj7Q-10">
          <mxGeometry relative="1" as="geometry" />
        </mxCell>
        <mxCell id="anOY829Rz3EBCnS7Kj7Q-44" value="&lt;b&gt;Login&lt;br&gt;Success&lt;/b&gt;" style="edgeStyle=orthogonalEdgeStyle;rounded=0;orthogonalLoop=1;jettySize=auto;html=1;exitX=0.5;exitY=1;exitDx=0;exitDy=0;fontSize=13;" edge="1" parent="1" source="anOY829Rz3EBCnS7Kj7Q-6" target="anOY829Rz3EBCnS7Kj7Q-12">
          <mxGeometry relative="1" as="geometry" />
        </mxCell>
        <mxCell id="anOY829Rz3EBCnS7Kj7Q-6" value="Authorization" style="rhombus;whiteSpace=wrap;html=1;" vertex="1" parent="1">
          <mxGeometry x="250" y="190" width="80" height="80" as="geometry" />
        </mxCell>
        <mxCell id="anOY829Rz3EBCnS7Kj7Q-11" value="" style="edgeStyle=orthogonalEdgeStyle;rounded=0;orthogonalLoop=1;jettySize=auto;html=1;" edge="1" parent="1" source="anOY829Rz3EBCnS7Kj7Q-8" target="anOY829Rz3EBCnS7Kj7Q-6">
          <mxGeometry relative="1" as="geometry" />
        </mxCell>
        <mxCell id="anOY829Rz3EBCnS7Kj7Q-8" value="Register" style="ellipse;whiteSpace=wrap;html=1;" vertex="1" parent="1">
          <mxGeometry x="370" y="90" width="80" height="80" as="geometry" />
        </mxCell>
        <mxCell id="anOY829Rz3EBCnS7Kj7Q-42" style="edgeStyle=orthogonalEdgeStyle;rounded=0;orthogonalLoop=1;jettySize=auto;html=1;exitX=1;exitY=0.5;exitDx=0;exitDy=0;" edge="1" parent="1" source="anOY829Rz3EBCnS7Kj7Q-10">
          <mxGeometry relative="1" as="geometry">
            <mxPoint x="290" y="190" as="targetPoint" />
          </mxGeometry>
        </mxCell>
        <mxCell id="anOY829Rz3EBCnS7Kj7Q-10" value="Login" style="ellipse;whiteSpace=wrap;html=1;aspect=fixed;" vertex="1" parent="1">
          <mxGeometry x="150" y="90" width="80" height="80" as="geometry" />
        </mxCell>
        <mxCell id="anOY829Rz3EBCnS7Kj7Q-18" style="edgeStyle=orthogonalEdgeStyle;rounded=0;orthogonalLoop=1;jettySize=auto;html=1;entryX=0;entryY=0.5;entryDx=0;entryDy=0;exitX=0.75;exitY=0;exitDx=0;exitDy=0;" edge="1" parent="1" source="anOY829Rz3EBCnS7Kj7Q-12" target="anOY829Rz3EBCnS7Kj7Q-15">
          <mxGeometry relative="1" as="geometry" />
        </mxCell>
        <mxCell id="anOY829Rz3EBCnS7Kj7Q-20" style="edgeStyle=orthogonalEdgeStyle;rounded=0;orthogonalLoop=1;jettySize=auto;html=1;exitX=0.75;exitY=1;exitDx=0;exitDy=0;entryX=0;entryY=0.5;entryDx=0;entryDy=0;" edge="1" parent="1" source="anOY829Rz3EBCnS7Kj7Q-12" target="anOY829Rz3EBCnS7Kj7Q-14">
          <mxGeometry relative="1" as="geometry">
            <Array as="points">
              <mxPoint x="320" y="485" />
            </Array>
          </mxGeometry>
        </mxCell>
        <mxCell id="anOY829Rz3EBCnS7Kj7Q-12" value="My Group Page" style="whiteSpace=wrap;html=1;" vertex="1" parent="1">
          <mxGeometry x="230" y="360" width="120" height="60" as="geometry" />
        </mxCell>
        <mxCell id="anOY829Rz3EBCnS7Kj7Q-22" value="" style="edgeStyle=orthogonalEdgeStyle;rounded=0;orthogonalLoop=1;jettySize=auto;html=1;" edge="1" parent="1" source="anOY829Rz3EBCnS7Kj7Q-14" target="anOY829Rz3EBCnS7Kj7Q-21">
          <mxGeometry relative="1" as="geometry" />
        </mxCell>
        <mxCell id="anOY829Rz3EBCnS7Kj7Q-14" value="Enter into &lt;br&gt;Already &lt;br&gt;created group" style="shape=step;perimeter=stepPerimeter;whiteSpace=wrap;html=1;fixedSize=1;" vertex="1" parent="1">
          <mxGeometry x="500" y="445" width="120" height="80" as="geometry" />
        </mxCell>
        <mxCell id="anOY829Rz3EBCnS7Kj7Q-24" value="" style="edgeStyle=orthogonalEdgeStyle;rounded=0;orthogonalLoop=1;jettySize=auto;html=1;" edge="1" parent="1" source="anOY829Rz3EBCnS7Kj7Q-15" target="anOY829Rz3EBCnS7Kj7Q-23">
          <mxGeometry relative="1" as="geometry" />
        </mxCell>
        <mxCell id="anOY829Rz3EBCnS7Kj7Q-15" value="Create Group" style="shape=step;perimeter=stepPerimeter;whiteSpace=wrap;html=1;fixedSize=1;" vertex="1" parent="1">
          <mxGeometry x="500" y="295" width="120" height="80" as="geometry" />
        </mxCell>
        <mxCell id="anOY829Rz3EBCnS7Kj7Q-29" value="" style="edgeStyle=orthogonalEdgeStyle;rounded=0;orthogonalLoop=1;jettySize=auto;html=1;exitX=1;exitY=0;exitDx=0;exitDy=0;" edge="1" parent="1" source="anOY829Rz3EBCnS7Kj7Q-21" target="anOY829Rz3EBCnS7Kj7Q-28">
          <mxGeometry relative="1" as="geometry">
            <Array as="points">
              <mxPoint x="660" y="610" />
              <mxPoint x="660" y="565" />
            </Array>
          </mxGeometry>
        </mxCell>
        <mxCell id="anOY829Rz3EBCnS7Kj7Q-21" value="My Expense Page" style="whiteSpace=wrap;html=1;" vertex="1" parent="1">
          <mxGeometry x="500" y="610" width="120" height="60" as="geometry" />
        </mxCell>
        <mxCell id="anOY829Rz3EBCnS7Kj7Q-26" value="" style="edgeStyle=orthogonalEdgeStyle;rounded=0;orthogonalLoop=1;jettySize=auto;html=1;" edge="1" parent="1" source="anOY829Rz3EBCnS7Kj7Q-23" target="anOY829Rz3EBCnS7Kj7Q-25">
          <mxGeometry relative="1" as="geometry" />
        </mxCell>
        <mxCell id="anOY829Rz3EBCnS7Kj7Q-23" value="Add &lt;br&gt;Participants" style="shape=step;perimeter=stepPerimeter;whiteSpace=wrap;html=1;fixedSize=1;" vertex="1" parent="1">
          <mxGeometry x="700" y="295" width="120" height="80" as="geometry" />
        </mxCell>
        <mxCell id="anOY829Rz3EBCnS7Kj7Q-27" style="edgeStyle=orthogonalEdgeStyle;rounded=0;orthogonalLoop=1;jettySize=auto;html=1;exitX=1;exitY=0.5;exitDx=0;exitDy=0;entryX=1;entryY=0.75;entryDx=0;entryDy=0;" edge="1" parent="1" source="anOY829Rz3EBCnS7Kj7Q-25" target="anOY829Rz3EBCnS7Kj7Q-12">
          <mxGeometry relative="1" as="geometry" />
        </mxCell>
        <mxCell id="anOY829Rz3EBCnS7Kj7Q-25" value="Proivde &lt;br&gt;Group Name" style="shape=step;perimeter=stepPerimeter;whiteSpace=wrap;html=1;fixedSize=1;" vertex="1" parent="1">
          <mxGeometry x="900" y="295" width="120" height="80" as="geometry" />
        </mxCell>
        <mxCell id="anOY829Rz3EBCnS7Kj7Q-32" value="" style="edgeStyle=orthogonalEdgeStyle;rounded=0;orthogonalLoop=1;jettySize=auto;html=1;" edge="1" parent="1" source="anOY829Rz3EBCnS7Kj7Q-28" target="anOY829Rz3EBCnS7Kj7Q-31">
          <mxGeometry relative="1" as="geometry" />
        </mxCell>
        <mxCell id="anOY829Rz3EBCnS7Kj7Q-28" value="Create &lt;br&gt;Expense" style="shape=step;perimeter=stepPerimeter;whiteSpace=wrap;html=1;fixedSize=1;" vertex="1" parent="1">
          <mxGeometry x="700" y="525" width="120" height="80" as="geometry" />
        </mxCell>
        <mxCell id="anOY829Rz3EBCnS7Kj7Q-33" style="edgeStyle=orthogonalEdgeStyle;rounded=0;orthogonalLoop=1;jettySize=auto;html=1;exitX=1;exitY=0.5;exitDx=0;exitDy=0;entryX=0.992;entryY=0.883;entryDx=0;entryDy=0;entryPerimeter=0;" edge="1" parent="1" source="anOY829Rz3EBCnS7Kj7Q-31" target="anOY829Rz3EBCnS7Kj7Q-21">
          <mxGeometry relative="1" as="geometry" />
        </mxCell>
        <mxCell id="anOY829Rz3EBCnS7Kj7Q-31" value="Add Expense&lt;br&gt;Name, Price&lt;br&gt;and Payer" style="shape=step;perimeter=stepPerimeter;whiteSpace=wrap;html=1;fixedSize=1;" vertex="1" parent="1">
          <mxGeometry x="890" y="525" width="120" height="80" as="geometry" />
        </mxCell>
        <mxCell id="anOY829Rz3EBCnS7Kj7Q-38" style="edgeStyle=orthogonalEdgeStyle;rounded=0;orthogonalLoop=1;jettySize=auto;html=1;exitX=1;exitY=0.5;exitDx=0;exitDy=0;entryX=0;entryY=0.25;entryDx=0;entryDy=0;" edge="1" parent="1" source="anOY829Rz3EBCnS7Kj7Q-34" target="anOY829Rz3EBCnS7Kj7Q-21">
          <mxGeometry relative="1" as="geometry" />
        </mxCell>
        <mxCell id="anOY829Rz3EBCnS7Kj7Q-34" value="List of&amp;nbsp;&lt;br&gt;Expenses&lt;br&gt;Of Group" style="shape=step;perimeter=stepPerimeter;whiteSpace=wrap;html=1;fixedSize=1;rotation=0;" vertex="1" parent="1">
          <mxGeometry x="220" y="570" width="120" height="80" as="geometry" />
        </mxCell>
        <mxCell id="anOY829Rz3EBCnS7Kj7Q-41" style="edgeStyle=orthogonalEdgeStyle;rounded=0;orthogonalLoop=1;jettySize=auto;html=1;exitX=1;exitY=0.5;exitDx=0;exitDy=0;entryX=0;entryY=0.75;entryDx=0;entryDy=0;" edge="1" parent="1" source="anOY829Rz3EBCnS7Kj7Q-40" target="anOY829Rz3EBCnS7Kj7Q-21">
          <mxGeometry relative="1" as="geometry" />
        </mxCell>
        <mxCell id="anOY829Rz3EBCnS7Kj7Q-40" value="Status of payee, payers" style="shape=step;perimeter=stepPerimeter;whiteSpace=wrap;html=1;fixedSize=1;rotation=0;" vertex="1" parent="1">
          <mxGeometry x="220" y="665" width="120" height="80" as="geometry" />
        </mxCell>
      </root>
    </mxGraphModel>
  </diagram>
</mxfile>
